<svg width="103" height="101" viewBox="0 0 103 101" fill="none" xmlns="http://www.w3.org/2000/svg">
<path d="M101.406 50.5C101.406 77.5382 79.1075 99.5 51.5468 99.5C23.9862 99.5 1.68726 77.5382 1.68726 50.5C1.68726 23.4618 23.9862 1.5 51.5468 1.5C79.1075 1.5 101.406 23.4618 101.406 50.5Z" fill="white" stroke="#5288C1" stroke-width="3"/>
<path d="M69.6042 50.5C68.2947 50.5 67.0388 49.9798 66.1128 49.0538C65.1869 48.1279 64.6667 46.872 64.6667 45.5625C64.6667 44.253 65.1869 42.9971 66.1128 42.0712C67.0388 41.1452 68.2947 40.625 69.6042 40.625C70.9137 40.625 72.1695 41.1452 73.0955 42.0712C74.0215 42.9971 74.5417 44.253 74.5417 45.5625C74.5417 46.872 74.0215 48.1279 73.0955 49.0538C72.1695 49.9798 70.9137 50.5 69.6042 50.5ZM59.7292 37.3333C58.4197 37.3333 57.1638 36.8131 56.2378 35.8872C55.3119 34.9612 54.7917 33.7053 54.7917 32.3958C54.7917 31.0863 55.3119 29.8305 56.2378 28.9045C57.1638 27.9785 58.4197 27.4583 59.7292 27.4583C61.0387 27.4583 62.2945 27.9785 63.2205 28.9045C64.1465 29.8305 64.6667 31.0863 64.6667 32.3958C64.6667 33.7053 64.1465 34.9612 63.2205 35.8872C62.2945 36.8131 61.0387 37.3333 59.7292 37.3333ZM43.2708 37.3333C41.9613 37.3333 40.7055 36.8131 39.7795 35.8872C38.8535 34.9612 38.3333 33.7053 38.3333 32.3958C38.3333 31.0863 38.8535 29.8305 39.7795 28.9045C40.7055 27.9785 41.9613 27.4583 43.2708 27.4583C44.5803 27.4583 45.8362 27.9785 46.7622 28.9045C47.6881 29.8305 48.2083 31.0863 48.2083 32.3958C48.2083 33.7053 47.6881 34.9612 46.7622 35.8872C45.8362 36.8131 44.5803 37.3333 43.2708 37.3333ZM33.3958 50.5C32.0863 50.5 30.8305 49.9798 29.9045 49.0538C28.9785 48.1279 28.4583 46.872 28.4583 45.5625C28.4583 44.253 28.9785 42.9971 29.9045 42.0712C30.8305 41.1452 32.0863 40.625 33.3958 40.625C34.7053 40.625 35.9612 41.1452 36.8872 42.0712C37.8131 42.9971 38.3333 44.253 38.3333 45.5625C38.3333 46.872 37.8131 48.1279 36.8872 49.0538C35.9612 49.9798 34.7053 50.5 33.3958 50.5ZM51.5 20.875C43.643 20.875 36.1077 23.9962 30.552 29.552C24.9962 35.1077 21.875 42.643 21.875 50.5C21.875 58.357 24.9962 65.8923 30.552 71.448C36.1077 77.0038 43.643 80.125 51.5 80.125C52.8095 80.125 54.0654 79.6048 54.9913 78.6788C55.9173 77.7529 56.4375 76.497 56.4375 75.1875C56.4375 73.9038 55.9437 72.7517 55.1538 71.8958C54.3967 71.0071 53.9029 69.855 53.9029 68.6042C53.9029 67.2947 54.4231 66.0388 55.3491 65.1128C56.275 64.1869 57.5309 63.6667 58.8404 63.6667H64.6667C69.0317 63.6667 73.2179 61.9327 76.3045 58.8461C79.391 55.7596 81.125 51.5734 81.125 47.2083C81.125 32.6592 67.8596 20.875 51.5 20.875Z" fill="#5288C1"/>
</svg>
