<svg width="38" height="38" viewBox="0 0 38 38" fill="none" xmlns="http://www.w3.org/2000/svg">
<g clip-path="url(#clip0_116_36)">
<path d="M5.56708 32.433C3.75238 30.6803 2.30492 28.5837 1.30915 26.2656C0.31338 23.9476 -0.210759 21.4544 -0.232681 18.9316C-0.254604 16.4088 0.226129 13.9069 1.18147 11.5718C2.1368 9.2368 3.54761 7.11541 5.33157 5.33145C7.11553 3.54749 9.23692 2.13668 11.572 1.18134C13.907 0.226007 16.4089 -0.254726 18.9317 -0.232803C21.4545 -0.210881 23.9477 0.313258 26.2658 1.30903C28.5838 2.3048 30.6804 3.75226 32.4331 5.56696C35.8941 9.1504 37.8092 13.9498 37.7659 18.9316C37.7226 23.9133 35.7244 28.6788 32.2016 32.2015C28.6789 35.7243 23.9134 37.7225 18.9317 37.7658C13.95 37.8091 9.15052 35.894 5.56708 32.433ZM8.24608 29.754C11.0982 32.6061 14.9665 34.2084 19.0001 34.2084C23.0336 34.2084 26.9019 32.6061 29.7541 29.754C32.6062 26.9018 34.2085 23.0335 34.2085 19C34.2085 14.9664 32.6062 11.0981 29.7541 8.24596C26.9019 5.39382 23.0336 3.7915 19.0001 3.7915C14.9665 3.7915 11.0982 5.39382 8.24608 8.24596C5.39394 11.0981 3.79162 14.9664 3.79162 19C3.79162 23.0335 5.39394 26.9018 8.24608 29.754ZM27.0561 13.623L21.6791 19L27.0561 24.377L24.3771 27.056L19.0001 21.679L13.6231 27.056L10.9441 24.377L16.3211 19L10.9441 13.623L13.6231 10.944L19.0001 16.321L24.3771 10.944L27.0561 13.623Z" fill="#699BF7"/>
</g>
<defs>
<clipPath id="clip0_116_36">
<rect width="38" height="38" fill="white"/>
</clipPath>
</defs>
</svg>
