<svg width="21" height="21" viewBox="0 0 21 21" fill="none" xmlns="http://www.w3.org/2000/svg">
<path d="M1.57884 13.8948L0.417728 19.1593C0.377674 19.3518 0.379047 19.5512 0.421747 19.743C0.464447 19.9348 0.547396 20.1142 0.664534 20.268C0.781671 20.4218 0.930039 20.5462 1.0988 20.6321C1.26756 20.718 1.45244 20.7632 1.63995 20.7644C1.72732 20.7736 1.81536 20.7736 1.90273 20.7644L6.94439 19.5445L16.6244 9.4135L11.2222 3.75092L1.57884 13.8948Z" fill="#5288C1"/>
<path d="M19.6679 4.34158L16.0623 0.55368C15.8253 0.305903 15.5045 0.166809 15.1701 0.166809C14.8357 0.166809 14.5149 0.305903 14.2779 0.55368L12.2734 2.65949L17.6695 8.3285L19.674 6.22269C19.7913 6.09883 19.8842 5.95189 19.9474 5.79027C20.0106 5.62865 20.0428 5.45552 20.0422 5.2808C20.0417 5.10608 20.0083 4.93319 19.9441 4.77203C19.8798 4.61087 19.786 4.46459 19.6679 4.34158Z" fill="#5288C1"/>
</svg>
