<svg width="19" height="18" viewBox="0 0 19 18" fill="none" xmlns="http://www.w3.org/2000/svg">
<path opacity="0.16" d="M14.36 17H5V7C5.625 7 6.208 6.688 6.555 6.168L9.109 2.336C9.38303 1.92493 9.75433 1.58789 10.1899 1.35482C10.6255 1.12175 11.112 0.999871 11.606 1H11.819C11.9642 0.999922 12.1078 1.03148 12.2396 1.09249C12.3714 1.1535 12.4883 1.24249 12.5823 1.35326C12.6762 1.46404 12.7449 1.59396 12.7835 1.73397C12.8221 1.87398 12.8298 2.02072 12.806 2.164L12 7H15.56C15.856 6.99988 16.1482 7.06545 16.4158 7.19197C16.6833 7.31848 16.9195 7.5028 17.1072 7.73162C17.2948 7.96045 17.4294 8.22807 17.5011 8.5152C17.5729 8.80232 17.58 9.10179 17.522 9.392L16.322 15.392C16.2313 15.8456 15.9863 16.2537 15.6286 16.5469C15.2708 16.84 14.8225 17.0002 14.36 17Z" fill="#5288C1"/>
<path d="M12 7L11.014 6.836C10.9902 6.97919 10.9978 7.12585 11.0364 7.26579C11.075 7.40573 11.1436 7.53559 11.2374 7.64635C11.3312 7.75712 11.4481 7.84612 11.5797 7.90719C11.7114 7.96826 11.8548 7.99993 12 8V7ZM1 7V6C0.734784 6 0.48043 6.10536 0.292893 6.29289C0.105357 6.48043 0 6.73478 0 7H1ZM3 18H14.36V16H3V18ZM15.56 6H12V8H15.56V6ZM12.986 7.164L13.792 2.329L11.82 2L11.015 6.836L12.986 7.164ZM11.82 1.08502e-07H11.607V2H11.82V1.08502e-07ZM8.278 1.781L5.762 5.555L7.426 6.665L9.94 2.89L8.278 1.781ZM4.93 6H1V8H4.93V6ZM0 7V15H2V7H0ZM17.302 15.588L18.502 9.588L16.541 9.196L15.341 15.196L17.302 15.588ZM5.762 5.555C5.67065 5.69192 5.54692 5.80417 5.40178 5.88179C5.25665 5.95942 5.09459 6.00002 4.93 6V8C5.42387 7.99996 5.91009 7.878 6.3455 7.64494C6.78092 7.41188 7.15207 7.07493 7.426 6.664L5.762 5.555ZM13.792 2.329C13.8398 2.04254 13.8246 1.74911 13.7475 1.46911C13.6704 1.18911 13.5333 0.929256 13.3456 0.707616C13.1579 0.485976 12.9242 0.307866 12.6608 0.185666C12.3973 0.0634664 12.1104 0.000109617 11.82 1.08502e-07V2L13.792 2.329ZM15.56 8C15.708 7.99994 15.8541 8.03272 15.9879 8.09598C16.1217 8.15924 16.2397 8.2514 16.3336 8.36581C16.4274 8.48022 16.4947 8.61404 16.5306 8.7576C16.5664 8.90116 16.57 9.05089 16.541 9.196L18.502 9.588C18.589 9.15277 18.5783 8.70365 18.4708 8.27304C18.3632 7.84242 18.1615 7.44104 17.88 7.09782C17.5986 6.75461 17.2445 6.47811 16.8434 6.28827C16.4422 6.09843 16.0038 5.99997 15.56 6V8ZM14.36 18C15.0536 18 15.7258 17.7597 16.2622 17.32C16.7986 16.8802 17.166 16.2682 17.302 15.588L15.341 15.196C15.2957 15.4226 15.1733 15.6265 14.9947 15.7731C14.816 15.9197 14.5911 15.9999 14.36 16V18ZM11.606 1.08502e-07C10.9474 -0.000153281 10.2989 0.162331 9.71815 0.473025C9.13741 0.78372 8.64337 1.23301 8.278 1.781L9.942 2.891C10.1246 2.61698 10.372 2.39228 10.6623 2.23685C10.9526 2.08142 11.2767 2.00006 11.606 2V1.08502e-07ZM3 16C2.73478 16 2.48043 15.8946 2.29289 15.7071C2.10536 15.5196 2 15.2652 2 15H0C0 15.7956 0.316071 16.5587 0.87868 17.1213C1.44129 17.6839 2.20435 18 3 18V16Z" fill="#5288C1"/>
<path d="M5 7V17" stroke="#5288C1" stroke-width="2"/>
</svg>
