<svg width="33" height="33" viewBox="0 0 33 33" fill="none" xmlns="http://www.w3.org/2000/svg">
<path d="M32.0346 1.05615C31.9233 0.933851 31.7883 0.835387 31.6379 0.76671C31.4875 0.698034 31.3247 0.66057 31.1594 0.656583C30.994 0.652596 30.8296 0.682168 30.6761 0.743513C30.5225 0.804859 30.3829 0.896703 30.2659 1.0135L29.3236 1.95117C29.2094 2.06544 29.1453 2.22038 29.1453 2.38192C29.1453 2.54347 29.2094 2.69841 29.3236 2.81268L30.1874 3.67494C30.244 3.73183 30.3113 3.77697 30.3855 3.80777C30.4596 3.83857 30.539 3.85443 30.6193 3.85443C30.6996 3.85443 30.779 3.83857 30.8532 3.80777C30.9273 3.77697 30.9946 3.73183 31.0512 3.67494L31.9698 2.76088C32.4345 2.29699 32.4779 1.54137 32.0346 1.05615ZM27.4186 3.85547L13.668 17.5816C13.5847 17.6647 13.5241 17.7678 13.4921 17.881L12.856 19.7754C12.8408 19.8268 12.8397 19.8814 12.8529 19.9333C12.8661 19.9853 12.8931 20.0327 12.931 20.0706C12.9689 20.1085 13.0163 20.1355 13.0683 20.1487C13.1203 20.1619 13.1748 20.1608 13.2262 20.1456L15.1191 19.5096C15.2323 19.4776 15.3354 19.417 15.4185 19.3336L29.1446 5.58152C29.2716 5.45317 29.3428 5.27991 29.3428 5.09936C29.3428 4.9188 29.2716 4.74554 29.1446 4.61719L28.3867 3.85547C28.2582 3.72732 28.0841 3.65536 27.9026 3.65536C27.7212 3.65536 27.5471 3.72732 27.4186 3.85547Z" fill="#699BF7"/>
<path d="M26.4282 11.7514L17.1437 21.0543C16.7848 21.414 16.3438 21.681 15.8586 21.832L13.8858 22.4924C13.4176 22.6247 12.9226 22.6296 12.4518 22.5069C11.981 22.3841 11.5515 22.1381 11.2075 21.794C10.8635 21.45 10.6174 21.0205 10.4946 20.5497C10.3719 20.0789 10.3769 19.5839 10.5091 19.1157L11.1695 17.1429C11.3201 16.6579 11.5865 16.2169 11.9457 15.8579L21.2486 6.57176C21.3338 6.48658 21.3919 6.37803 21.4155 6.25983C21.4391 6.14163 21.4271 6.01909 21.381 5.90771C21.3349 5.79634 21.2569 5.70112 21.1567 5.63411C21.0565 5.5671 20.9387 5.53131 20.8182 5.53125H4.92188C3.79056 5.53125 2.70558 5.98066 1.90562 6.78062C1.10566 7.58058 0.65625 8.66556 0.65625 9.79688V28.0781C0.65625 29.2094 1.10566 30.2944 1.90562 31.0944C2.70558 31.8943 3.79056 32.3438 4.92188 32.3438H23.2031C24.3344 32.3438 25.4194 31.8943 26.2194 31.0944C27.0193 30.2944 27.4688 29.2094 27.4688 28.0781V12.1818C27.4687 12.0613 27.4329 11.9435 27.3659 11.8433C27.2989 11.7431 27.2037 11.6651 27.0923 11.619C26.9809 11.5729 26.8584 11.5609 26.7402 11.5845C26.622 11.6081 26.5134 11.6662 26.4282 11.7514Z" fill="#699BF7"/>
</svg>
