<svg width="103" height="101" viewBox="0 0 103 101" fill="none" xmlns="http://www.w3.org/2000/svg">
<path d="M101.219 50.5C101.219 77.5382 78.9202 99.5 51.3596 99.5C23.7989 99.5 1.5 77.5382 1.5 50.5C1.5 23.4618 23.7989 1.5 51.3596 1.5C78.9202 1.5 101.219 23.4618 101.219 50.5Z" fill="white" stroke="#5288C1" stroke-width="3"/>
<path d="M52.0271 12.5867C49.2906 12.5867 46.735 13.8119 44.5566 15.8182C42.3786 17.8249 40.5139 20.6197 38.9595 24.0049C38.6337 24.7141 38.3226 25.4511 38.0252 26.2114C37.2231 26.0862 36.4176 25.9833 35.6097 25.9029C34.6698 25.8108 33.7528 25.7536 32.8618 25.7331C30.1873 25.6707 27.7429 25.9373 25.6005 26.5759C22.7442 27.4274 20.3873 28.9915 19.0191 31.3213C17.6509 33.6516 17.4522 36.4405 18.1303 39.2987C18.8087 42.1567 20.3377 45.1418 22.5423 48.1582C23.0049 48.7908 23.499 49.4254 24.0206 50.0597C23.5104 50.6791 23.018 51.3125 22.5442 51.9592C20.3394 54.9754 18.8105 57.9606 18.1322 60.8187C17.454 63.6769 17.6529 66.4658 19.0211 68.7956C20.3893 71.1259 22.7462 72.6898 25.6025 73.541C28.459 74.3928 31.8528 74.5832 35.6116 74.214C36.3996 74.1365 37.2046 74.033 38.0236 73.9062C38.3143 74.6516 38.6264 75.3887 38.9595 76.1167C40.5139 79.5024 42.3784 82.2966 44.5566 84.3032C46.7349 86.3098 49.2908 87.5352 52.0271 87.5352C54.7633 87.5352 57.3191 86.3097 59.4973 84.3032C61.6754 82.2965 63.5401 79.5022 65.0945 76.1167C65.4276 75.3888 65.7397 74.6518 66.0304 73.9065C66.8484 74.033 67.6527 74.1367 68.4401 74.214C72.1991 74.583 75.5931 74.3926 78.4492 73.541C81.3058 72.6897 83.6627 71.1256 85.031 68.7956C86.3992 66.4653 86.5979 63.6767 85.9198 60.8187C85.2414 57.9607 83.7123 54.9756 81.5078 51.9592C81.0338 51.3126 80.5414 50.6792 80.0313 50.0597C80.5423 49.4398 81.0352 48.8058 81.5096 48.1584C83.7142 45.142 85.2432 42.1568 85.9214 39.2988C86.5997 36.4407 86.4008 33.6517 85.0326 31.3215C83.6644 28.9917 81.3075 27.4276 78.4512 26.576C76.3089 25.9375 73.8644 25.6708 71.1902 25.7331C70.2986 25.7536 69.3814 25.8108 68.4417 25.9029C67.6534 25.9804 66.8476 26.0843 66.0283 26.2112C65.7379 25.4673 65.4263 24.7315 65.0938 24.0049C63.5394 20.6192 61.6749 17.8245 59.4967 15.818C57.3185 13.8116 54.7625 12.5865 52.0264 12.5865L52.0271 12.5867ZM52.0271 15.5795C53.8522 15.5795 55.6418 16.368 57.4162 18.0027C59.1905 19.6371 60.8851 22.1112 62.3201 25.2365C62.5535 25.7464 62.7754 26.2613 62.9856 26.7809C59.4972 27.5435 55.8025 28.7136 52.0261 30.2771C48.2505 28.714 44.5563 27.5442 41.0685 26.7815C41.2838 26.2514 41.505 25.7347 41.734 25.2363C43.169 22.1109 44.8637 19.6368 46.6381 18.0021C48.4125 16.3677 50.202 15.5792 52.0274 15.5792L52.0271 15.5795ZM31.8964 28.7215C32.1903 28.7186 32.4888 28.7205 32.792 28.7272C33.5999 28.7449 34.4398 28.7961 35.3074 28.8815C35.8621 28.9359 36.4291 29.0056 37.0052 29.0878C35.9325 32.4394 35.1158 36.1702 34.604 40.1674C31.3386 42.6017 28.4604 45.1633 26.0446 47.7528C25.691 47.3131 25.3474 46.8657 25.014 46.4111C22.9788 43.6266 21.6472 40.9465 21.0946 38.6182C20.5419 36.2898 20.7427 34.372 21.6552 32.8178C22.5677 31.2636 24.1571 30.1341 26.4837 29.4404C28.0107 28.9851 29.8391 28.7397 31.8963 28.7213L31.8964 28.7215ZM72.1558 28.7215C74.213 28.7399 76.0413 28.9853 77.5683 29.4406C79.8953 30.1341 81.484 31.2636 82.3967 32.8178C83.3091 34.372 83.51 36.29 82.9575 38.6182C82.4053 40.9464 81.0729 43.6266 79.038 46.4111C78.7047 46.8658 78.3612 47.3133 78.0078 47.7532C75.5922 45.1639 72.7149 42.603 69.4504 40.169C68.939 36.1712 68.1213 32.4398 67.0486 29.0878C67.624 29.0056 68.1904 28.9356 68.7447 28.8815C69.5808 28.7981 70.42 28.7466 71.2602 28.7271C71.5587 28.7204 71.8572 28.7184 72.1558 28.7212V28.7215ZM64.0247 29.6248C64.8342 32.0973 65.5044 34.8254 66.0047 37.7447C64.3887 36.6714 62.7346 35.6545 61.0455 34.6961C59.3578 33.7374 57.6362 32.8377 55.8838 31.9986C58.7049 30.9648 61.4425 30.1717 64.0247 29.6251V29.6248ZM40.0293 29.6252C42.611 30.172 45.3482 30.9651 48.1686 31.9988C46.4163 32.8379 44.6946 33.7376 43.0068 34.6961C41.3185 35.6541 39.6651 36.6703 38.0496 37.7429C38.5497 34.8244 39.2198 32.0971 40.0293 29.6252ZM52.0261 33.5427C54.503 34.617 57.0173 35.8656 59.5236 37.2884C62.0308 38.7119 64.3889 40.2289 66.5739 41.8016C66.8665 44.4485 67.0238 47.2146 67.0238 50.0609C67.0238 52.9056 66.867 55.6705 66.5746 58.3163C64.3895 59.8887 62.0318 61.4054 59.5254 62.8285C57.0186 64.2515 54.5037 65.5006 52.0263 66.5749C49.5485 65.5006 47.0336 64.2515 44.5268 62.8285C42.0209 61.4058 39.6641 59.8896 37.4799 58.3179C37.1875 55.6716 37.0303 52.9062 37.0303 50.0607C37.0303 47.2139 37.1875 44.4475 37.4802 41.8003C39.665 40.2281 42.0222 38.7112 44.5286 37.2884C47.0351 35.8657 49.5493 34.617 52.0261 33.543V33.5427ZM52.232 38.0456L43.5174 43.3335L52.232 48.6219L60.9465 43.3335L52.232 38.0455V38.0456ZM34.1911 44.3132C34.0542 46.2259 33.9859 48.1429 33.9864 50.0604C33.9864 52.014 34.0564 53.9317 34.1913 55.8042C31.8702 53.9192 29.8027 51.9845 28.0299 50.0589C29.8027 48.1335 31.8701 46.1985 34.1911 44.3132ZM69.8632 44.3148C72.1831 46.1998 74.2501 48.134 76.0223 50.0591C74.2501 51.9842 72.1831 53.9184 69.8632 55.8029C70 53.8918 70.0682 51.9764 70.0678 50.0605C70.0678 48.106 69.9977 46.188 69.863 44.3148H69.8632ZM41.5542 45.6591V56.101L50.7066 61.6547V51.2133L41.5542 45.6591ZM62.9013 45.6646L53.751 51.2172V61.6536L62.9014 56.101L62.9013 45.6646ZM26.0442 52.3655C28.4604 54.9552 31.3382 57.5161 34.6034 59.9505C35.1148 63.9472 35.9319 67.6777 37.0043 71.0293C36.4293 71.111 35.8631 71.181 35.3093 71.2354C31.8393 71.5761 28.8124 71.37 26.4857 70.6765C24.1587 69.983 22.57 68.853 21.6573 67.2988C20.7449 65.7445 20.544 63.8266 21.0965 61.4984C21.649 59.1702 22.9807 56.49 25.016 53.7055C25.3486 53.2514 25.6914 52.8046 26.0442 52.3655ZM78.0076 52.366C78.3671 52.8144 78.7113 53.2613 79.0359 53.7055C81.071 56.4898 82.4027 59.1701 82.9552 61.4983C83.5077 63.8265 83.3073 65.7443 82.3949 67.2986C81.4821 68.8528 79.893 69.9829 77.5661 70.6763C75.2394 71.3698 72.2131 71.5759 68.743 71.2353C68.1772 71.1788 67.6127 71.1102 67.0499 71.0295C68.1225 67.6771 68.9393 63.9458 69.4508 59.9483C72.7149 57.5145 75.5924 54.9543 78.0078 52.3657L78.0076 52.366ZM66.0053 62.373C65.5053 65.292 64.8352 68.0201 64.0256 70.4925C61.4433 69.9459 58.7054 69.1523 55.8841 68.1186C57.6369 67.2791 59.3591 66.3791 61.0475 65.4203C62.7361 64.4622 64.3899 63.4458 66.0056 62.373H66.0053ZM38.049 62.3746C39.6639 63.4469 41.3167 64.4628 43.0045 65.4203C44.6929 66.3791 46.4151 67.2791 48.1679 68.1186C45.3474 69.1521 42.6104 69.9455 40.0282 70.4921C39.2187 68.0203 38.549 65.2928 38.049 62.3746ZM52.1171 62.5108L52.2279 62.578L52.3382 62.5108H52.1173H52.1171ZM52.0259 69.8406C55.8032 71.4038 59.498 72.5737 62.9869 73.3362C62.7763 73.8572 62.554 74.3736 62.3201 74.8849C60.8851 78.01 59.1905 80.484 57.416 82.1187C55.6418 83.7533 53.8522 84.5419 52.0271 84.5419C50.202 84.5419 48.4122 83.7533 46.6379 82.1187C44.8637 80.4841 43.169 78.01 41.734 74.8848C41.5002 74.3734 41.2778 73.857 41.067 73.336C44.5553 72.5734 48.2498 71.4036 52.0263 69.8406H52.0259Z" fill="#5288C1"/>
</svg>
