<svg width="103" height="101" viewBox="0 0 103 101" fill="none" xmlns="http://www.w3.org/2000/svg">
<path d="M101.5 50.5C101.5 77.5382 79.201 99.5 51.6404 99.5C24.0797 99.5 1.78076 77.5382 1.78076 50.5C1.78076 23.4618 24.0797 1.5 51.6404 1.5C79.201 1.5 101.5 23.4618 101.5 50.5Z" fill="white" stroke="#5288C1" stroke-width="3"/>
<path d="M64.9221 51.3475L51.7446 38.7195C50.2046 37.2378 48.9201 35.5812 47.8911 33.7495C46.8621 31.9155 46.3476 29.9205 46.3476 27.7645C46.3476 25.1908 47.2471 23.0033 49.0461 21.202C50.8474 19.4007 53.0349 18.5 55.6086 18.5C57.5196 18.5 59.2579 19.0168 60.8236 20.0505C62.3892 21.0865 63.7554 22.3418 64.9221 23.8165C66.0887 22.3418 67.4549 21.0865 69.0206 20.0505C70.5886 19.0168 72.3269 18.5 74.2356 18.5C76.8092 18.5 78.9967 19.4007 80.7981 21.202C82.5994 23.0033 83.5001 25.1897 83.5001 27.761C83.5001 29.9193 82.9891 31.9143 81.9671 33.746C80.9427 35.58 79.6606 37.2367 78.1206 38.716L64.9221 51.3475ZM64.9221 46.528L75.4046 36.49C76.6459 35.293 77.7227 33.9665 78.6351 32.5105C79.5451 31.0545 80.0001 29.4713 80.0001 27.761C80.0001 26.165 79.4401 24.8058 78.3201 23.6835C77.1931 22.5612 75.8316 22 74.2356 22C72.8356 22 71.5802 22.4188 70.4696 23.2565C69.3589 24.0918 68.3614 25.0777 67.4771 26.214L64.9221 29.4165L62.3636 26.214C61.4769 25.0777 60.4794 24.0918 59.3711 23.2565C58.2604 22.4188 57.0051 22 55.6051 22C54.0067 22 52.6464 22.56 51.5241 23.68C50.4041 24.8047 49.8441 26.165 49.8441 27.761C49.8441 29.4713 50.2991 31.0545 51.2091 32.5105C52.1191 33.9665 53.1959 35.293 54.4396 36.49L64.9221 46.528ZM32.4141 73.289L58.8916 81.017L79.8531 74.542C79.7831 73.478 79.4646 72.7115 78.8976 72.2425C78.3306 71.7735 77.6889 71.539 76.9726 71.539H60.3651C58.8857 71.539 57.5441 71.4807 56.3401 71.364C55.1361 71.2473 53.9052 70.9685 52.6476 70.5275L44.9826 68.018L46.1656 64.56L53.2531 67.122C54.3777 67.549 55.6564 67.8057 57.0891 67.892C58.5217 67.9783 60.4817 68.0273 62.9691 68.039C62.9691 66.9493 62.7684 66.0673 62.3671 65.393C61.9657 64.7187 61.3906 64.2497 60.6416 63.986L40.5026 56.5975C40.3696 56.5508 40.2471 56.5158 40.1351 56.4925C40.0231 56.4692 39.8994 56.4587 39.7641 56.461H32.4141V73.289ZM18.4141 81.5V52.961H39.6801C40.0067 52.961 40.3427 52.9983 40.6881 53.073C41.0334 53.1477 41.3542 53.234 41.6506 53.332L61.8806 60.7415C63.1312 61.2175 64.2081 62.0727 65.1111 63.307C66.0164 64.5413 66.4691 66.1187 66.4691 68.039H76.9691C79.0761 68.039 80.6907 68.6982 81.8131 70.0165C82.9354 71.3372 83.4966 73.0113 83.4966 75.039V77.1915L59.0666 84.7305L32.4106 76.9605V81.5H18.4141ZM21.9141 78H28.9141V56.461H21.9141V78Z" fill="#5288C1"/>
</svg>
