<svg width="103" height="101" viewBox="0 0 103 101" fill="none" xmlns="http://www.w3.org/2000/svg">
<path d="M101.313 50.5C101.313 77.5382 79.014 99.5 51.4533 99.5C23.8927 99.5 1.59375 77.5382 1.59375 50.5C1.59375 23.4618 23.8927 1.5 51.4533 1.5C79.014 1.5 101.313 23.4618 101.313 50.5Z" fill="white" stroke="#5288C1" stroke-width="3"/>
<path d="M60.625 22.6667L80.875 29.5V46.5833H70.75V73.9167C70.75 74.8228 70.3944 75.6919 69.7615 76.3326C69.1286 76.9734 68.2701 77.3333 67.375 77.3333H33.625C32.7299 77.3333 31.8715 76.9734 31.2385 76.3326C30.6056 75.6919 30.25 74.8228 30.25 73.9167V46.5833H20.125V29.5L40.375 22.6667C40.375 25.3851 41.4417 27.9923 43.3405 29.9145C45.2393 31.8368 47.8147 32.9167 50.5 32.9167C53.1853 32.9167 55.7607 31.8368 57.6595 29.9145C59.5583 27.9923 60.625 25.3851 60.625 22.6667Z" stroke="#5288C1" stroke-width="2" stroke-linecap="round" stroke-linejoin="round"/>
<path d="M45.4375 46.5833H53.875L48.8125 63.6667" stroke="#5288C1" stroke-width="2" stroke-linecap="round" stroke-linejoin="round"/>
</svg>
