<svg width="14" height="14" viewBox="0 0 14 14" fill="none" xmlns="http://www.w3.org/2000/svg">
<path opacity="0.2" d="M13.3163 5.79938L10.2725 8.42438L11.2025 12.3488C11.2271 12.4496 11.2213 12.5555 11.1857 12.653C11.1501 12.7505 11.0864 12.8353 11.0027 12.8966C10.9189 12.958 10.8189 12.9931 10.7152 12.9976C10.6115 13.0021 10.5088 12.9757 10.42 12.9219L7.00003 10.8181L3.58003 12.9213C3.4913 12.9751 3.38859 13.0015 3.28488 12.997C3.18117 12.9925 3.08112 12.9574 2.99738 12.896C2.91363 12.8347 2.84995 12.7499 2.81438 12.6524C2.77881 12.5549 2.77295 12.449 2.79753 12.3481L3.72753 8.42376L0.683784 5.79876C0.606179 5.73061 0.550229 5.64124 0.52284 5.54166C0.495451 5.44208 0.497822 5.33666 0.529662 5.23842C0.561502 5.14017 0.621416 5.05341 0.702007 4.98882C0.782597 4.92424 0.880337 4.88467 0.983159 4.87501L4.97753 4.55001L6.51628 0.825005C6.55551 0.728904 6.62247 0.646665 6.70863 0.588775C6.79479 0.530886 6.89623 0.499969 7.00003 0.499969C7.10383 0.499969 7.20528 0.530886 7.29144 0.588775C7.37759 0.646665 7.44456 0.728904 7.48378 0.825005L9.02253 4.55001L13.0169 4.87501C13.1199 4.88456 13.2178 4.92409 13.2985 4.98871C13.3792 5.05333 13.4392 5.14021 13.4711 5.23858C13.5029 5.33695 13.5053 5.44251 13.4777 5.54218C13.4502 5.64186 13.3941 5.73128 13.3163 5.79938Z" fill="#5288C1"/>
<path d="M13.9488 5.07875C13.8863 4.88658 13.7683 4.71721 13.6097 4.59198C13.4511 4.46674 13.259 4.39125 13.0575 4.375L9.37004 4.0775L7.94629 0.63438C7.8693 0.446766 7.73825 0.286285 7.56981 0.173341C7.40137 0.0603971 7.20315 9.15527e-05 7.00035 9.15527e-05C6.79756 9.15527e-05 6.59934 0.0603971 6.4309 0.173341C6.26246 0.286285 6.13141 0.446766 6.05442 0.63438L4.63192 4.07688L0.942542 4.375C0.740778 4.39207 0.548535 4.4683 0.389901 4.59413C0.231267 4.71997 0.113295 4.88983 0.0507674 5.08241C-0.0117605 5.275 -0.0160642 5.48176 0.0383956 5.67678C0.0928554 5.87181 0.203657 6.04642 0.356917 6.17875L3.16942 8.60563L2.31254 12.2344C2.26462 12.4315 2.27635 12.6385 2.34625 12.8289C2.41615 13.0194 2.54107 13.1848 2.70514 13.3041C2.86921 13.4235 3.06505 13.4913 3.26778 13.4992C3.47051 13.507 3.671 13.4544 3.84379 13.3481L7.00004 11.4056L10.1582 13.3481C10.331 13.4532 10.5311 13.5047 10.7332 13.4963C10.9353 13.4879 11.1304 13.4199 11.2939 13.3008C11.4574 13.1817 11.5821 13.0169 11.6521 12.8271C11.7221 12.6374 11.7345 12.4311 11.6875 12.2344L10.8275 8.605L13.64 6.17813C13.7945 6.04602 13.9064 5.87103 13.9613 5.67532C14.0163 5.47961 14.0119 5.27199 13.9488 5.07875ZM12.99 5.42063L9.94629 8.04563C9.87688 8.10546 9.82524 8.18321 9.79703 8.2704C9.76881 8.35759 9.7651 8.45085 9.78629 8.54L10.7163 12.465C10.7187 12.4704 10.7189 12.4765 10.717 12.4821C10.715 12.4877 10.7109 12.4923 10.7057 12.495C10.6944 12.5038 10.6913 12.5019 10.6819 12.495L7.26192 10.3919C7.18315 10.3435 7.0925 10.3178 7.00004 10.3178C6.90758 10.3178 6.81693 10.3435 6.73817 10.3919L3.31817 12.4963C3.30879 12.5019 3.30629 12.5038 3.29442 12.4963C3.28914 12.4936 3.2851 12.489 3.28312 12.4834C3.28115 12.4778 3.28139 12.4717 3.28379 12.4663L4.21379 8.54125C4.23499 8.4521 4.23127 8.35884 4.20306 8.27165C4.17484 8.18446 4.1232 8.10671 4.05379 8.04688L1.01004 5.42188C1.00254 5.41563 0.995667 5.41 1.00192 5.39063C1.00817 5.37125 1.01317 5.37375 1.02254 5.3725L5.01754 5.05C5.10917 5.04215 5.19686 5.00917 5.27096 4.95469C5.34506 4.90022 5.4027 4.82637 5.43754 4.74125L6.97629 1.01563C6.98129 1.005 6.98317 1 6.99817 1C7.01317 1 7.01504 1.005 7.02004 1.01563L8.56254 4.74125C8.59771 4.8264 8.65572 4.90017 8.73016 4.95444C8.80461 5.0087 8.89259 5.04134 8.98442 5.04875L12.9794 5.37125C12.9888 5.37125 12.9944 5.37125 13 5.38938C13.0057 5.40751 13 5.41438 12.99 5.42063Z" fill="#5288C1"/>
</svg>
